<svg version="1.1" viewBox="0.0 0.0 374.0 371.0" fill="none" stroke="none" stroke-linecap="square" stroke-miterlimit="10" width="374" height="371" xmlns:xlink="http://www.w3.org/1999/xlink" xmlns="http://www.w3.org/2000/svg"><path fill="#ffffff" d="M0 0L374.0 0L374.0 371.0L0 371.0L0 0Z" fill-rule="nonzero"/><path stroke="#333333" stroke-width="1.0" stroke-linecap="butt" d="M78.5 62.5L78.5 298.5" fill-rule="nonzero"/><path stroke="#cccccc" stroke-width="1.0" stroke-linecap="butt" d="M147.5 62.5L147.5 298.5" fill-rule="nonzero"/><path stroke="#cccccc" stroke-width="1.0" stroke-linecap="butt" d="M217.5 62.5L217.5 298.5" fill-rule="nonzero"/><path stroke="#cccccc" stroke-width="1.0" stroke-linecap="butt" d="M286.5 62.5L286.5 298.5" fill-rule="nonzero"/><path stroke="#cccccc" stroke-width="1.0" stroke-linecap="butt" d="M355.5 62.5L355.5 298.5" fill-rule="nonzero"/><path stroke="#333333" stroke-width="1.0" stroke-linecap="butt" d="M78.5 298.5L355.5 298.5" fill-rule="nonzero"/><path stroke="#cccccc" stroke-width="1.0" stroke-linecap="butt" d="M78.5 239.5L355.5 239.5" fill-rule="nonzero"/><path stroke="#cccccc" stroke-width="1.0" stroke-linecap="butt" d="M78.5 180.5L355.5 180.5" fill-rule="nonzero"/><path stroke="#cccccc" stroke-width="1.0" stroke-linecap="butt" d="M78.5 121.5L355.5 121.5" fill-rule="nonzero"/><path stroke="#cccccc" stroke-width="1.0" stroke-linecap="butt" d="M78.5 62.5L355.5 62.5" fill-rule="nonzero"/><clipPath id="id_0"><path d="M78.55 62.416668L355.45 62.416668L355.45 298.45L78.55 298.45L78.55 62.416668Z" clip-rule="nonzero"/></clipPath><path stroke="#ff9900" stroke-width="2.0" stroke-linecap="butt" clip-path="url(#id_0)" d="M78.55 298.45L355.45 62.416668" fill-rule="nonzero"/><path fill="#000000" fill-opacity="0.0" clip-path="url(#id_0)" d="M81.55 298.45C81.55 300.10684 80.206856 301.45 78.55 301.45C76.89314 301.45 75.55 300.10684 75.55 298.45C75.55 296.79315 76.89314 295.45 78.55 295.45C80.206856 295.45 81.55 296.79315 81.55 298.45Z" fill-rule="nonzero"/><path fill="#000000" fill-opacity="0.0" clip-path="url(#id_0)" d="M358.45 62.416668C358.45 64.073524 357.10684 65.416664 355.45 65.416664C353.79315 65.416664 352.45 64.073524 352.45 62.416668C352.45 60.75981 353.79315 59.416668 355.45 59.416668C357.10684 59.416668 358.45 60.75981 358.45 62.416668Z" fill-rule="nonzero"/><path fill="#424242" d="M194.48438 349.45L194.48438 340.91876L197.28125 340.91876Q198.67188 340.91876 199.35938 341.4969Q200.0625 342.0594 200.0625 343.1844Q200.0625 343.79376 199.71875 344.2625Q199.39062 344.71564 198.79688 344.96564Q199.5 345.15314 199.89062 345.7Q200.29688 346.23126 200.29688 346.98126Q200.29688 348.1375 199.54688 348.79376Q198.8125 349.45 197.45312 349.45L194.48438 349.45ZM195.60938 345.46564L195.60938 348.52814L197.46875 348.52814Q198.26562 348.52814 198.71875 348.1219Q199.17188 347.71564 199.17188 346.9969Q199.17188 345.46564 197.48438 345.46564L195.60938 345.46564ZM195.60938 344.5594L197.3125 344.5594Q198.04688 344.5594 198.48438 344.2Q198.9375 343.825 198.9375 343.1844Q198.9375 342.48126 198.53125 342.16876Q198.125 341.84064 197.28125 341.84064L195.60938 341.84064L195.60938 344.5594ZM203.95312 349.575Q202.65625 349.575 201.84375 348.73126Q201.04688 347.8719 201.04688 346.45L201.04688 346.2625Q201.04688 345.3094 201.40625 344.575Q201.76562 343.825 202.40625 343.41876Q203.0625 342.9969 203.8125 342.9969Q205.04688 342.9969 205.73438 343.8094Q206.42188 344.6219 206.42188 346.1375L206.42188 346.59064L202.125 346.59064Q202.15625 347.52814 202.67188 348.10626Q203.20312 348.6844 204.01562 348.6844Q204.57812 348.6844 204.96875 348.45Q205.375 348.21564 205.6875 347.825L206.34375 348.34064Q205.54688 349.575 203.95312 349.575ZM203.8125 343.8875Q203.15625 343.8875 202.70312 344.3719Q202.26562 344.84064 202.17188 345.7L205.34375 345.7L205.34375 345.6219Q205.29688 344.79376 204.89062 344.34064Q204.5 343.8875 203.8125 343.8875ZM208.40625 343.8719Q209.125 342.9969 210.28125 342.9969Q212.29688 342.9969 212.3125 345.2625L212.3125 349.45L211.21875 349.45L211.21875 345.2469Q211.21875 344.575 210.90625 344.2469Q210.60938 343.91876 209.95312 343.91876Q209.42188 343.91876 209.01562 344.2Q208.625 344.48126 208.40625 344.9344L208.40625 349.45L207.32812 349.45L207.32812 340.45L208.40625 340.45L208.40625 343.8719ZM218.23438 349.45Q218.14062 349.2625 218.07812 348.77814Q217.32812 349.575 216.28125 349.575Q215.34375 349.575 214.73438 349.04376Q214.14062 348.5125 214.14062 347.6844Q214.14062 346.7 214.89062 346.15314Q215.64062 345.60626 217.01562 345.60626L218.0625 345.60626L218.0625 345.10626Q218.0625 344.54376 217.71875 344.21564Q217.39062 343.8719 216.71875 343.8719Q216.14062 343.8719 215.75 344.16876Q215.35938 344.45 215.35938 344.8719L214.26562 344.8719Q214.26562 344.3875 214.59375 343.95Q214.9375 343.5125 215.51562 343.2625Q216.09375 342.9969 216.78125 342.9969Q217.89062 342.9969 218.5 343.54376Q219.125 344.09064 219.15625 345.04376L219.15625 347.96564Q219.15625 348.84064 219.375 349.35626L219.375 349.45L218.23438 349.45ZM216.4375 348.6219Q216.95312 348.6219 217.40625 348.35626Q217.85938 348.09064 218.0625 347.66876L218.0625 346.3719L217.21875 346.3719Q215.21875 346.3719 215.21875 347.54376Q215.21875 348.04376 215.5625 348.34064Q215.90625 348.6219 216.4375 348.6219ZM223.40625 347.98126L224.98438 343.10626L226.09375 343.10626L223.8125 349.45L222.98438 349.45L220.6875 343.10626L221.79688 343.10626L223.40625 347.98126ZM228.5 349.45L227.42188 349.45L227.42188 343.10626L228.5 343.10626L228.5 349.45ZM227.32812 341.4344Q227.32812 341.16876 227.48438 340.98126Q227.65625 340.79376 227.96875 340.79376Q228.28125 340.79376 228.4375 340.98126Q228.60938 341.16876 228.60938 341.4344Q228.60938 341.6844 228.4375 341.8719Q228.28125 342.04376 227.96875 342.04376Q227.65625 342.04376 227.48438 341.8719Q227.32812 341.6844 227.32812 341.4344ZM230.03125 346.21564Q230.03125 345.29376 230.39062 344.54376Q230.76562 343.79376 231.42188 343.40314Q232.07812 342.9969 232.90625 342.9969Q234.20312 342.9969 235.0 343.8875Q235.8125 344.77814 235.8125 346.27814L235.8125 346.35626Q235.8125 347.27814 235.45312 348.0125Q235.09375 348.7469 234.4375 349.16876Q233.78125 349.575 232.92188 349.575Q231.64062 349.575 230.82812 348.6844Q230.03125 347.77814 230.03125 346.29376L230.03125 346.21564ZM231.125 346.35626Q231.125 347.40314 231.60938 348.04376Q232.10938 348.6844 232.92188 348.6844Q233.75 348.6844 234.23438 348.04376Q234.71875 347.3875 234.71875 346.21564Q234.71875 345.1844 234.21875 344.54376Q233.73438 343.8875 232.90625 343.8875Q232.10938 343.8875 231.60938 344.52814Q231.125 345.15314 231.125 346.35626ZM240.39062 344.075Q240.14062 344.04376 239.85938 344.04376Q238.78125 344.04376 238.40625 344.95L238.40625 349.45L237.32812 349.45L237.32812 343.10626L238.375 343.10626L238.39062 343.84064Q238.92188 342.9969 239.90625 342.9969Q240.21875 342.9969 240.39062 343.075L240.39062 344.075Z" fill-rule="nonzero"/><path fill="#424242" d="M28.315638 213.98021L28.315638 217.55833L30.550013 218.35521L30.550013 219.51146L22.018763 216.26146L22.018763 215.27708L30.550013 212.01146L30.550013 213.16771L28.315638 213.98021ZM27.393763 217.21458L27.393763 214.30833L23.409388 215.76146L27.393763 217.21458ZM25.175013 207.79271Q25.143763 208.04271 25.143763 208.32396Q25.143763 209.40208 26.050013 209.77708L30.550013 209.77708L30.550013 210.85521L24.206263 210.85521L24.206263 209.80833L24.940638 209.79271Q24.096888 209.26146 24.096888 208.27708Q24.096888 207.96458 24.175013 207.79271L25.175013 207.79271ZM29.784388 204.32396Q29.784388 203.74583 29.440638 203.30833Q29.081263 202.87083 28.550013 202.82396L28.550013 201.79271Q29.096888 201.82396 29.596888 202.18333Q30.081263 202.52708 30.378138 203.10521Q30.675013 203.66771 30.675013 204.32396Q30.675013 205.62083 29.815638 206.38646Q28.940638 207.13646 27.440638 207.13646L27.253138 207.13646Q26.331263 207.13646 25.612513 206.80833Q24.893763 206.46458 24.503138 205.83958Q24.096888 205.19896 24.096888 204.32396Q24.096888 203.26146 24.737513 202.55833Q25.362513 201.83958 26.393763 201.79271L26.393763 202.82396Q25.768763 202.87083 25.378138 203.29271Q24.987513 203.71458 24.987513 204.32396Q24.987513 205.15208 25.581263 205.60521Q26.175013 206.05833 27.300013 206.05833L27.503138 206.05833Q28.596888 206.05833 29.190638 205.60521Q29.784388 205.15208 29.784388 204.32396ZM24.971888 199.77708Q24.096888 199.05833 24.096888 197.90208Q24.096888 195.88646 26.362513 195.87083L30.550013 195.87083L30.550013 196.96458L26.346888 196.96458Q25.675013 196.96458 25.346888 197.27708Q25.018763 197.57396 25.018763 198.23021Q25.018763 198.76146 25.300013 199.16771Q25.581263 199.55833 26.034388 199.77708L30.550013 199.77708L30.550013 200.85521L21.550013 200.85521L21.550013 199.77708L24.971888 199.77708ZM30.550013 192.68333L30.550013 193.76146L24.206263 193.76146L24.206263 192.68333L30.550013 192.68333ZM22.534388 193.85521Q22.268763 193.85521 22.081263 193.69896Q21.893763 193.52708 21.893763 193.21458Q21.893763 192.90208 22.081263 192.74583Q22.268763 192.57396 22.534388 192.57396Q22.784388 192.57396 22.971888 192.74583Q23.143763 192.90208 23.143763 193.21458Q23.143763 193.52708 22.971888 193.69896Q22.784388 193.85521 22.534388 193.85521ZM22.675013 189.38646L24.206263 189.38646L24.206263 188.21458L25.050013 188.21458L25.050013 189.38646L28.971888 189.38646Q29.362513 189.38646 29.550013 189.23021Q29.737513 189.07396 29.737513 188.69896Q29.737513 188.51146 29.675013 188.18333L30.550013 188.18333Q30.675013 188.60521 30.675013 189.01146Q30.675013 189.73021 30.237513 190.10521Q29.784388 190.48021 28.971888 190.48021L25.050013 190.48021L25.050013 191.63646L24.206263 191.63646L24.206263 190.48021L22.675013 190.48021L22.675013 189.38646ZM30.675013 184.23021Q30.675013 185.52708 29.831263 186.33958Q28.971888 187.13646 27.550013 187.13646L27.362513 187.13646Q26.409388 187.13646 25.675013 186.77708Q24.925013 186.41771 24.518763 185.77708Q24.096888 185.12083 24.096888 184.37083Q24.096888 183.13646 24.909388 182.44896Q25.721888 181.76146 27.237513 181.76146L27.690638 181.76146L27.690638 186.05833Q28.628138 186.02708 29.206263 185.51146Q29.784388 184.98021 29.784388 184.16771Q29.784388 183.60521 29.550013 183.21458Q29.315638 182.80833 28.925013 182.49583L29.440638 181.83958Q30.675013 182.63646 30.675013 184.23021ZM24.987513 184.37083Q24.987513 185.02708 25.471888 185.48021Q25.940638 185.91771 26.800013 186.01146L26.800013 182.83958L26.721888 182.83958Q25.893763 182.88646 25.440638 183.29271Q24.987513 183.68333 24.987513 184.37083ZM29.784388 178.32396Q29.784388 177.74583 29.440638 177.30833Q29.081263 176.87083 28.550013 176.82396L28.550013 175.79271Q29.096888 175.82396 29.596888 176.18333Q30.081263 176.52708 30.378138 177.10521Q30.675013 177.66771 30.675013 178.32396Q30.675013 179.62083 29.815638 180.38646Q28.940638 181.13646 27.440638 181.13646L27.253138 181.13646Q26.331263 181.13646 25.612513 180.80833Q24.893763 180.46458 24.503138 179.83958Q24.096888 179.19896 24.096888 178.32396Q24.096888 177.26146 24.737513 176.55833Q25.362513 175.83958 26.393763 175.79271L26.393763 176.82396Q25.768763 176.87083 25.378138 177.29271Q24.987513 177.71458 24.987513 178.32396Q24.987513 179.15208 25.581263 179.60521Q26.175013 180.05833 27.300013 180.05833L27.503138 180.05833Q28.596888 180.05833 29.190638 179.60521Q29.784388 179.15208 29.784388 178.32396ZM22.675013 173.38646L24.206263 173.38646L24.206263 172.21458L25.050013 172.21458L25.050013 173.38646L28.971888 173.38646Q29.362513 173.38646 29.550013 173.23021Q29.737513 173.07396 29.737513 172.69896Q29.737513 172.51146 29.675013 172.18333L30.550013 172.18333Q30.675013 172.60521 30.675013 173.01146Q30.675013 173.73021 30.237513 174.10521Q29.784388 174.48021 28.971888 174.48021L25.050013 174.48021L25.050013 175.63646L24.206263 175.63646L24.206263 174.48021L22.675013 174.48021L22.675013 173.38646ZM29.925013 166.94896Q30.675013 167.57396 30.675013 168.80833Q30.675013 169.82396 30.081263 170.35521Q29.487513 170.88646 28.331263 170.88646L24.206263 170.88646L24.206263 169.80833L28.300013 169.80833Q29.753138 169.80833 29.753138 168.63646Q29.753138 167.38646 28.815638 166.98021L24.206263 166.98021L24.206263 165.88646L30.550013 165.88646L30.550013 166.91771L29.925013 166.94896ZM25.175013 160.79271Q25.143763 161.04271 25.143763 161.32396Q25.143763 162.40208 26.050013 162.77708L30.550013 162.77708L30.550013 163.85521L24.206263 163.85521L24.206263 162.80833L24.940638 162.79271Q24.096888 162.26146 24.096888 161.27708Q24.096888 160.96458 24.175013 160.79271L25.175013 160.79271ZM30.675013 157.23021Q30.675013 158.52708 29.831263 159.33958Q28.971888 160.13646 27.550013 160.13646L27.362513 160.13646Q26.409388 160.13646 25.675013 159.77708Q24.925013 159.41771 24.518763 158.77708Q24.096888 158.12083 24.096888 157.37083Q24.096888 156.13646 24.909388 155.44896Q25.721888 154.76146 27.237513 154.76146L27.690638 154.76146L27.690638 159.05833Q28.628138 159.02708 29.206263 158.51146Q29.784388 157.98021 29.784388 157.16771Q29.784388 156.60521 29.550013 156.21458Q29.315638 155.80833 28.925013 155.49583L29.440638 154.83958Q30.675013 155.63646 30.675013 157.23021ZM24.987513 157.37083Q24.987513 158.02708 25.471888 158.48021Q25.940638 158.91771 26.800013 159.01146L26.800013 155.83958L26.721888 155.83958Q25.893763 155.88646 25.440638 156.29271Q24.987513 156.68333 24.987513 157.37083Z" fill-rule="nonzero"/><path fill="#757575" d="M71.6125 299.3094Q71.6125 301.21564 70.95625 302.15314Q70.31563 303.075 68.925 303.075Q67.56563 303.075 66.90938 302.16876Q66.25313 301.2625 66.22188 299.45L66.22188 298.0125Q66.22188 296.1219 66.8625 295.21564Q67.51875 294.29376 68.90938 294.29376Q70.28438 294.29376 70.94063 295.1844Q71.59688 296.0594 71.6125 297.90314L71.6125 299.3094ZM70.51875 297.825Q70.51875 296.45 70.12813 295.825Q69.75313 295.1844 68.90938 295.1844Q68.08125 295.1844 67.69063 295.825Q67.31563 296.45 67.31563 297.7469L67.31563 299.48126Q67.31563 300.85626 67.70625 301.52814Q68.1125 302.1844 68.925 302.1844Q69.72188 302.1844 70.1125 301.5594Q70.50313 300.9344 70.51875 299.60626L70.51875 297.825Z" fill-rule="nonzero"/><path fill="#757575" d="M64.84688 243.94167L59.253124 243.94167L59.253124 243.16042L62.20625 239.87917Q62.8625 239.12917 63.1125 238.67604Q63.3625 238.20729 63.3625 237.70729Q63.3625 237.03542 62.95625 236.61354Q62.565624 236.17604 61.878124 236.17604Q61.08125 236.17604 60.628124 236.64479Q60.175 237.09792 60.175 237.92604L59.096874 237.92604Q59.096874 236.73854 59.846874 236.01979Q60.6125 235.28542 61.878124 235.28542Q63.08125 235.28542 63.76875 235.91042Q64.45625 236.53542 64.45625 237.58229Q64.45625 238.83229 62.846874 240.58229L60.565624 243.05104L64.84688 243.05104L64.84688 243.94167ZM66.75313 239.66042L67.19063 235.41042L71.56563 235.41042L71.56563 236.41042L68.1125 236.41042L67.84688 238.73854Q68.4875 238.36354 69.28438 238.36354Q70.44063 238.36354 71.12813 239.14479Q71.81563 239.91042 71.81563 241.22292Q71.81563 242.53542 71.09688 243.30104Q70.39375 244.06667 69.1125 244.06667Q67.9875 244.06667 67.26875 243.44167Q66.55 242.80104 66.45625 241.69167L67.47188 241.69167Q67.58125 242.42604 68.00313 242.80104Q68.425 243.17604 69.1125 243.17604Q69.8625 243.17604 70.3 242.66042Q70.7375 242.14479 70.7375 241.23854Q70.7375 240.37917 70.26875 239.86354Q69.8 239.34792 69.01875 239.34792Q68.31563 239.34792 67.90938 239.64479L67.62813 239.87917L66.75313 239.66042Z" fill-rule="nonzero"/><path fill="#757575" d="M59.753124 180.65208L60.190624 176.40208L64.56563 176.40208L64.56563 177.40208L61.1125 177.40208L60.846874 179.73021Q61.4875 179.35521 62.284374 179.35521Q63.440624 179.35521 64.12813 180.13646Q64.81563 180.90208 64.81563 182.21458Q64.81563 183.52708 64.09688 184.29271Q63.39375 185.05833 62.1125 185.05833Q60.9875 185.05833 60.26875 184.43333Q59.55 183.79271 59.45625 182.68333L60.471874 182.68333Q60.58125 183.41771 61.003124 183.79271Q61.425 184.16771 62.1125 184.16771Q62.8625 184.16771 63.3 183.65208Q63.7375 183.13646 63.7375 182.23021Q63.7375 181.37083 63.26875 180.85521Q62.8 180.33958 62.01875 180.33958Q61.315624 180.33958 60.909374 180.63646L60.628124 180.87083L59.753124 180.65208ZM71.6125 181.29271Q71.6125 183.19896 70.95625 184.13646Q70.31563 185.05833 68.925 185.05833Q67.56563 185.05833 66.90938 184.15208Q66.25313 183.24583 66.22188 181.43333L66.22188 179.99583Q66.22188 178.10521 66.8625 177.19896Q67.51875 176.27708 68.90938 176.27708Q70.28438 176.27708 70.94063 177.16771Q71.59688 178.04271 71.6125 179.88646L71.6125 181.29271ZM70.51875 179.80833Q70.51875 178.43333 70.12813 177.80833Q69.75313 177.16771 68.90938 177.16771Q68.08125 177.16771 67.69063 177.80833Q67.31563 178.43333 67.31563 179.73021L67.31563 181.46458Q67.31563 182.83958 67.70625 183.51146Q68.1125 184.16771 68.925 184.16771Q69.72188 184.16771 70.1125 183.54271Q70.50313 182.91771 70.51875 181.58958L70.51875 179.80833Z" fill-rule="nonzero"/><path fill="#757575" d="M64.76875 118.00313L61.2375 125.925L60.096874 125.925L63.6125 118.28438L59.003124 118.28438L59.003124 117.39375L64.76875 117.39375L64.76875 118.00313ZM66.75313 121.64375L67.19063 117.39375L71.56563 117.39375L71.56563 118.39375L68.1125 118.39375L67.84688 120.72188Q68.4875 120.34688 69.28438 120.34688Q70.44063 120.34688 71.12813 121.12813Q71.81563 121.89375 71.81563 123.20625Q71.81563 124.51875 71.09688 125.28438Q70.39375 126.05 69.1125 126.05Q67.9875 126.05 67.26875 125.425Q66.55 124.78438 66.45625 123.675L67.47188 123.675Q67.58125 124.40938 68.00313 124.78438Q68.425 125.15938 69.1125 125.15938Q69.8625 125.15938 70.3 124.64375Q70.7375 124.12813 70.7375 123.22188Q70.7375 122.3625 70.26875 121.84688Q69.8 121.33125 69.01875 121.33125Q68.31563 121.33125 67.90938 121.62813L67.62813 121.8625L66.75313 121.64375Z" fill-rule="nonzero"/><path fill="#757575" d="M55.815624 66.916664L54.7375 66.916664L54.7375 59.697914L52.55 60.49479L52.55 59.510414L55.659374 58.33854L55.815624 58.33854L55.815624 66.916664ZM64.6125 63.27604Q64.6125 65.18229 63.95625 66.11979Q63.315624 67.041664 61.925 67.041664Q60.565624 67.041664 59.909374 66.135414Q59.253124 65.229164 59.221874 63.416664L59.221874 61.979164Q59.221874 60.08854 59.8625 59.18229Q60.51875 58.260414 61.909374 58.260414Q63.284374 58.260414 63.940624 59.15104Q64.59688 60.02604 64.6125 61.86979L64.6125 63.27604ZM63.51875 61.791664Q63.51875 60.416664 63.128124 59.791664Q62.753124 59.15104 61.909374 59.15104Q61.08125 59.15104 60.690624 59.791664Q60.315624 60.416664 60.315624 61.71354L60.315624 63.447914Q60.315624 64.822914 60.70625 65.49479Q61.1125 66.15104 61.925 66.15104Q62.721874 66.15104 63.1125 65.52604Q63.503124 64.90104 63.51875 63.572914L63.51875 61.791664ZM71.6125 63.27604Q71.6125 65.18229 70.95625 66.11979Q70.31563 67.041664 68.925 67.041664Q67.56563 67.041664 66.90938 66.135414Q66.25313 65.229164 66.22188 63.416664L66.22188 61.979164Q66.22188 60.08854 66.8625 59.18229Q67.51875 58.260414 68.90938 58.260414Q70.28438 58.260414 70.94063 59.15104Q71.59688 60.02604 71.6125 61.86979L71.6125 63.27604ZM70.51875 61.791664Q70.51875 60.416664 70.12813 59.791664Q69.75313 59.15104 68.90938 59.15104Q68.08125 59.15104 67.69063 59.791664Q67.31563 60.416664 67.31563 61.71354L67.31563 63.447914Q67.31563 64.822914 67.70625 65.49479Q68.1125 66.15104 68.925 66.15104Q69.72188 66.15104 70.1125 65.52604Q70.50313 64.90104 70.51875 63.572914L70.51875 61.791664Z" fill-rule="nonzero"/><path fill="#757575" d="M81.1125 312.8094Q81.1125 314.71564 80.45625 315.65314Q79.81563 316.575 78.425 316.575Q77.06563 316.575 76.40938 315.66876Q75.75313 314.7625 75.72188 312.95L75.72188 311.5125Q75.72188 309.6219 76.3625 308.71564Q77.01875 307.79376 78.40938 307.79376Q79.78438 307.79376 80.44063 308.6844Q81.09688 309.5594 81.1125 311.40314L81.1125 312.8094ZM80.01875 311.325Q80.01875 309.95 79.62813 309.325Q79.25313 308.6844 78.40938 308.6844Q77.58125 308.6844 77.19063 309.325Q76.81563 309.95 76.81563 311.2469L76.81563 312.98126Q76.81563 314.35626 77.20625 315.02814Q77.6125 315.6844 78.425 315.6844Q79.22188 315.6844 79.6125 315.0594Q80.00313 314.4344 80.01875 313.10626L80.01875 311.325Z" fill-rule="nonzero"/><path fill="#757575" d="M147.07187 316.45L141.47812 316.45L141.47812 315.66876L144.43124 312.3875Q145.0875 311.6375 145.3375 311.1844Q145.5875 310.71564 145.5875 310.21564Q145.5875 309.54376 145.18124 309.1219Q144.79062 308.6844 144.10312 308.6844Q143.30624 308.6844 142.85312 309.15314Q142.4 309.60626 142.4 310.4344L141.32187 310.4344Q141.32187 309.2469 142.07187 308.52814Q142.8375 307.79376 144.10312 307.79376Q145.30624 307.79376 145.99374 308.41876Q146.68124 309.04376 146.68124 310.09064Q146.68124 311.34064 145.07187 313.09064L142.79062 315.5594L147.07187 315.5594L147.07187 316.45ZM148.97812 312.16876L149.41562 307.91876L153.79062 307.91876L153.79062 308.91876L150.3375 308.91876L150.07187 311.2469Q150.7125 310.8719 151.50937 310.8719Q152.66562 310.8719 153.35312 311.65314Q154.04062 312.41876 154.04062 313.73126Q154.04062 315.04376 153.32187 315.8094Q152.61874 316.575 151.3375 316.575Q150.2125 316.575 149.49374 315.95Q148.775 315.3094 148.68124 314.2L149.69687 314.2Q149.80624 314.9344 150.22812 315.3094Q150.65 315.6844 151.3375 315.6844Q152.0875 315.6844 152.525 315.16876Q152.9625 314.65314 152.9625 313.7469Q152.9625 312.8875 152.49374 312.3719Q152.025 311.85626 151.24374 311.85626Q150.54062 311.85626 150.13437 312.15314L149.85312 312.3875L148.97812 312.16876Z" fill-rule="nonzero"/><path fill="#757575" d="M211.20312 312.16876L211.64062 307.91876L216.01562 307.91876L216.01562 308.91876L212.5625 308.91876L212.29688 311.2469Q212.9375 310.8719 213.73438 310.8719Q214.89062 310.8719 215.57812 311.65314Q216.26562 312.41876 216.26562 313.73126Q216.26562 315.04376 215.54688 315.8094Q214.84375 316.575 213.5625 316.575Q212.4375 316.575 211.71875 315.95Q211.0 315.3094 210.90625 314.2L211.92188 314.2Q212.03125 314.9344 212.45312 315.3094Q212.875 315.6844 213.5625 315.6844Q214.3125 315.6844 214.75 315.16876Q215.1875 314.65314 215.1875 313.7469Q215.1875 312.8875 214.71875 312.3719Q214.25 311.85626 213.46875 311.85626Q212.76562 311.85626 212.35938 312.15314L212.07812 312.3875L211.20312 312.16876ZM223.0625 312.8094Q223.0625 314.71564 222.40625 315.65314Q221.76562 316.575 220.375 316.575Q219.01562 316.575 218.35938 315.66876Q217.70312 314.7625 217.67188 312.95L217.67188 311.5125Q217.67188 309.6219 218.3125 308.71564Q218.96875 307.79376 220.35938 307.79376Q221.73438 307.79376 222.39062 308.6844Q223.04688 309.5594 223.0625 311.40314L223.0625 312.8094ZM221.96875 311.325Q221.96875 309.95 221.57812 309.325Q221.20312 308.6844 220.35938 308.6844Q219.53125 308.6844 219.14062 309.325Q218.76562 309.95 218.76562 311.2469L218.76562 312.98126Q218.76562 314.35626 219.15625 315.02814Q219.5625 315.6844 220.375 315.6844Q221.17188 315.6844 221.5625 315.0594Q221.95312 314.4344 221.96875 313.10626L221.96875 311.325Z" fill-rule="nonzero"/><path fill="#757575" d="M285.44376 308.52814L281.9125 316.45L280.77188 316.45L284.2875 308.8094L279.67813 308.8094L279.67813 307.91876L285.44376 307.91876L285.44376 308.52814ZM287.42813 312.16876L287.86563 307.91876L292.24063 307.91876L292.24063 308.91876L288.7875 308.91876L288.52188 311.2469Q289.1625 310.8719 289.95938 310.8719Q291.11563 310.8719 291.80313 311.65314Q292.49063 312.41876 292.49063 313.73126Q292.49063 315.04376 291.77188 315.8094Q291.06876 316.575 289.7875 316.575Q288.6625 316.575 287.94376 315.95Q287.225 315.3094 287.13126 314.2L288.14688 314.2Q288.25626 314.9344 288.67813 315.3094Q289.1 315.6844 289.7875 315.6844Q290.5375 315.6844 290.975 315.16876Q291.4125 314.65314 291.4125 313.7469Q291.4125 312.8875 290.94376 312.3719Q290.475 311.85626 289.69376 311.85626Q288.99063 311.85626 288.58438 312.15314L288.30313 312.3875L287.42813 312.16876Z" fill-rule="nonzero"/><path fill="#757575" d="M349.21564 316.45L348.1375 316.45L348.1375 309.23126L345.95 310.02814L345.95 309.04376L349.0594 307.8719L349.21564 307.8719L349.21564 316.45ZM358.0125 312.8094Q358.0125 314.71564 357.35626 315.65314Q356.71564 316.575 355.325 316.575Q353.96564 316.575 353.3094 315.66876Q352.65314 314.7625 352.6219 312.95L352.6219 311.5125Q352.6219 309.6219 353.2625 308.71564Q353.91876 307.79376 355.3094 307.79376Q356.6844 307.79376 357.34064 308.6844Q357.9969 309.5594 358.0125 311.40314L358.0125 312.8094ZM356.91876 311.325Q356.91876 309.95 356.52814 309.325Q356.15314 308.6844 355.3094 308.6844Q354.48126 308.6844 354.09064 309.325Q353.71564 309.95 353.71564 311.2469L353.71564 312.98126Q353.71564 314.35626 354.10626 315.02814Q354.5125 315.6844 355.325 315.6844Q356.1219 315.6844 356.5125 315.0594Q356.90314 314.4344 356.91876 313.10626L356.91876 311.325ZM365.0125 312.8094Q365.0125 314.71564 364.35626 315.65314Q363.71564 316.575 362.325 316.575Q360.96564 316.575 360.3094 315.66876Q359.65314 314.7625 359.6219 312.95L359.6219 311.5125Q359.6219 309.6219 360.2625 308.71564Q360.91876 307.79376 362.3094 307.79376Q363.6844 307.79376 364.34064 308.6844Q364.9969 309.5594 365.0125 311.40314L365.0125 312.8094ZM363.91876 311.325Q363.91876 309.95 363.52814 309.325Q363.15314 308.6844 362.3094 308.6844Q361.48126 308.6844 361.09064 309.325Q360.71564 309.95 360.71564 311.2469L360.71564 312.98126Q360.71564 314.35626 361.10626 315.02814Q361.5125 315.6844 362.325 315.6844Q363.1219 315.6844 363.5125 315.0594Q363.90314 314.4344 363.91876 313.10626L363.91876 311.325Z" fill-rule="nonzero"/><path fill="#757575" d="M28.05 33.83125L22.096874 33.83125L20.753124 37.55L18.83125 37.55L24.253124 23.33125L25.89375 23.33125L31.33125 37.55L29.409374 37.55L28.05 33.83125ZM22.659374 32.3L27.503124 32.3L25.08125 25.64375L22.659374 32.3ZM38.01875 28.596874Q37.6125 28.534374 37.14375 28.534374Q35.3625 28.534374 34.721874 30.05L34.721874 37.55L32.925 37.55L32.925 26.9875L34.675 26.9875L34.70625 28.20625Q35.596874 26.784374 37.221874 26.784374Q37.753124 26.784374 38.01875 26.925L38.01875 28.596874ZM44.159374 36.26875Q45.128124 36.26875 45.846874 35.690624Q46.565624 35.096874 46.64375 34.221874L48.3625 34.221874Q48.3 35.128124 47.721874 35.95625Q47.159374 36.76875 46.190624 37.26875Q45.2375 37.753124 44.159374 37.753124Q42.003124 37.753124 40.721874 36.315624Q39.45625 34.8625 39.45625 32.3625L39.45625 32.065624Q39.45625 30.51875 40.01875 29.315624Q40.58125 28.1125 41.64375 27.45625Q42.70625 26.784374 44.14375 26.784374Q45.925 26.784374 47.096874 27.846874Q48.284374 28.909374 48.3625 30.6125L46.64375 30.6125Q46.565624 29.596874 45.8625 28.940624Q45.175 28.26875 44.14375 28.26875Q42.76875 28.26875 42.003124 29.26875Q41.253124 30.253124 41.253124 32.128124L41.253124 32.471874Q41.253124 34.3 42.003124 35.284374Q42.753124 36.26875 44.159374 36.26875ZM51.721874 28.26875Q52.925 26.784374 54.846874 26.784374Q58.20625 26.784374 58.221874 30.565624L58.221874 37.55L56.425 37.55L56.425 30.55Q56.409374 29.409374 55.89375 28.8625Q55.39375 28.315624 54.3 28.315624Q53.425 28.315624 52.753124 28.784374Q52.096874 29.253124 51.721874 30.01875L51.721874 37.55L49.925 37.55L49.925 22.55L51.721874 22.55L51.721874 28.26875ZM62.878124 37.55L61.08125 37.55L61.08125 26.9875L62.878124 26.9875L62.878124 37.55ZM60.925 24.175Q60.925 23.7375 61.190624 23.440624Q61.471874 23.128124 61.9875 23.128124Q62.51875 23.128124 62.784374 23.440624Q63.065624 23.7375 63.065624 24.175Q63.065624 24.6125 62.784374 24.909374Q62.51875 25.20625 61.9875 25.20625Q61.471874 25.20625 61.190624 24.909374Q60.925 24.6125 60.925 24.175ZM68.3625 24.425L68.3625 26.9875L70.34688 26.9875L70.34688 28.378124L68.3625 28.378124L68.3625 34.925Q68.3625 35.565624 68.62813 35.89375Q68.89375 36.20625 69.53438 36.20625Q69.84688 36.20625 70.39375 36.08125L70.39375 37.55Q69.675 37.753124 69.00313 37.753124Q67.8 37.753124 67.175 37.01875Q66.56563 36.284374 66.56563 34.925L66.56563 28.378124L64.64375 28.378124L64.64375 26.9875L66.56563 26.9875L66.56563 24.425L68.3625 24.425ZM77.3 37.753124Q75.15938 37.753124 73.8 36.346874Q72.45625 34.925 72.45625 32.565624L72.45625 32.221874Q72.45625 30.659374 73.05 29.425Q73.65938 28.190624 74.7375 27.4875Q75.81563 26.784374 77.08125 26.784374Q79.14375 26.784374 80.28438 28.14375Q81.425 29.503124 81.425 32.034374L81.425 32.784374L74.26875 32.784374Q74.3 34.346874 75.175 35.315624Q76.05 36.26875 77.39375 36.26875Q78.3625 36.26875 79.01875 35.878124Q79.69063 35.4875 80.19063 34.846874L81.28438 35.70625Q79.95625 37.753124 77.3 37.753124ZM77.08125 28.26875Q75.9875 28.26875 75.2375 29.065624Q74.50313 29.8625 74.33125 31.3L79.6125 31.3L79.6125 31.159374Q79.53438 29.784374 78.8625 29.034374Q78.20625 28.26875 77.08125 28.26875ZM88.15938 36.26875Q89.12813 36.26875 89.84688 35.690624Q90.56563 35.096874 90.64375 34.221874L92.3625 34.221874Q92.3 35.128124 91.72188 35.95625Q91.15938 36.76875 90.19063 37.26875Q89.2375 37.753124 88.15938 37.753124Q86.00313 37.753124 84.72188 36.315624Q83.45625 34.8625 83.45625 32.3625L83.45625 32.065624Q83.45625 30.51875 84.01875 29.315624Q84.58125 28.1125 85.64375 27.45625Q86.70625 26.784374 88.14375 26.784374Q89.925 26.784374 91.09688 27.846874Q92.28438 28.909374 92.3625 30.6125L90.64375 30.6125Q90.56563 29.596874 89.8625 28.940624Q89.175 28.26875 88.14375 28.26875Q86.76875 28.26875 86.00313 29.26875Q85.25313 30.253124 85.25313 32.128124L85.25313 32.471874Q85.25313 34.3 86.00313 35.284374Q86.75313 36.26875 88.15938 36.26875ZM96.3625 24.425L96.3625 26.9875L98.34688 26.9875L98.34688 28.378124L96.3625 28.378124L96.3625 34.925Q96.3625 35.565624 96.62813 35.89375Q96.89375 36.20625 97.53438 36.20625Q97.84688 36.20625 98.39375 36.08125L98.39375 37.55Q97.675 37.753124 97.00313 37.753124Q95.8 37.753124 95.175 37.01875Q94.56563 36.284374 94.56563 34.925L94.56563 28.378124L92.64375 28.378124L92.64375 26.9875L94.56563 26.9875L94.56563 24.425L96.3625 24.425ZM107.44063 36.503124Q106.39375 37.753124 104.34688 37.753124Q102.65938 37.753124 101.76875 36.76875Q100.89375 35.784374 100.87813 33.8625L100.87813 26.9875L102.69063 26.9875L102.69063 33.815624Q102.69063 36.20625 104.64375 36.20625Q106.70625 36.20625 107.39375 34.675L107.39375 26.9875L109.20625 26.9875L109.20625 37.55L107.4875 37.55L107.44063 36.503124ZM117.01875 28.596874Q116.6125 28.534374 116.14375 28.534374Q114.3625 28.534374 113.72188 30.05L113.72188 37.55L111.925 37.55L111.925 26.9875L113.675 26.9875L113.70625 28.20625Q114.59688 26.784374 116.22188 26.784374Q116.75313 26.784374 117.01875 26.925L117.01875 28.596874ZM123.3 37.753124Q121.15938 37.753124 119.8 36.346874Q118.45625 34.925 118.45625 32.565624L118.45625 32.221874Q118.45625 30.659374 119.05 29.425Q119.65938 28.190624 120.7375 27.4875Q121.81563 26.784374 123.08125 26.784374Q125.14375 26.784374 126.28438 28.14375Q127.425 29.503124 127.425 32.034374L127.425 32.784374L120.26875 32.784374Q120.3 34.346874 121.175 35.315624Q122.05 36.26875 123.39375 36.26875Q124.3625 36.26875 125.01875 35.878124Q125.69063 35.4875 126.19063 34.846874L127.28438 35.70625Q125.95625 37.753124 123.3 37.753124ZM123.08125 28.26875Q121.9875 28.26875 121.2375 29.065624Q120.50313 29.8625 120.33125 31.3L125.6125 31.3L125.6125 31.159374Q125.53438 29.784374 124.8625 29.034374Q124.20625 28.26875 123.08125 28.26875ZM138.40938 35.096874L141.01875 26.9875L142.8625 26.9875L139.08125 37.55L137.70625 37.55L133.87813 26.9875L135.72188 26.9875L138.40938 35.096874ZM151.06563 34.753124Q151.06563 34.01875 150.51875 33.6125Q149.97188 33.20625 148.59688 32.909374Q147.22188 32.6125 146.40938 32.20625Q145.6125 31.8 145.22188 31.2375Q144.84688 30.659374 144.84688 29.878124Q144.84688 28.58125 145.94063 27.690624Q147.03438 26.784374 148.75313 26.784374Q150.55 26.784374 151.65938 27.721874Q152.78438 28.64375 152.78438 30.08125L150.95625 30.08125Q150.95625 29.346874 150.33125 28.815624Q149.70625 28.26875 148.75313 28.26875Q147.75313 28.26875 147.19063 28.70625Q146.64375 29.128124 146.64375 29.83125Q146.64375 30.471874 147.15938 30.815624Q147.675 31.14375 149.03438 31.45625Q150.39375 31.753124 151.22188 32.175Q152.06563 32.58125 152.47188 33.175Q152.87813 33.76875 152.87813 34.6125Q152.87813 36.034374 151.7375 36.89375Q150.6125 37.753124 148.8 37.753124Q147.53438 37.753124 146.55 37.3Q145.58125 36.846874 145.01875 36.05Q144.47188 35.2375 144.47188 34.3L146.28438 34.3Q146.33125 35.20625 147.00313 35.7375Q147.69063 36.26875 148.8 36.26875Q149.83125 36.26875 150.44063 35.8625Q151.06563 35.440624 151.06563 34.753124ZM154.95625 36.596874Q154.95625 36.128124 155.2375 35.815624Q155.51875 35.503124 156.06563 35.503124Q156.62813 35.503124 156.90938 35.815624Q157.20625 36.128124 157.20625 36.596874Q157.20625 37.05 156.90938 37.3625Q156.62813 37.659374 156.06563 37.659374Q155.51875 37.659374 155.2375 37.3625Q154.95625 37.05 154.95625 36.596874ZM165.20625 37.55L165.20625 23.33125L169.84688 23.33125Q172.15938 23.33125 173.33125 24.284374Q174.50313 25.2375 174.50313 27.1125Q174.50313 28.1125 173.925 28.878124Q173.3625 29.64375 172.39375 30.065624Q173.53438 30.39375 174.20625 31.3Q174.87813 32.190624 174.87813 33.440624Q174.87813 35.3625 173.62813 36.45625Q172.39375 37.55 170.12813 37.55L165.20625 37.55ZM167.08125 30.89375L167.08125 36.01875L170.175 36.01875Q171.4875 36.01875 172.2375 35.346874Q172.9875 34.659374 172.9875 33.471874Q172.9875 30.89375 170.20625 30.89375L167.08125 30.89375ZM167.08125 29.39375L169.90938 29.39375Q171.14375 29.39375 171.87813 28.784374Q172.6125 28.159374 172.6125 27.1125Q172.6125 25.940624 171.925 25.409374Q171.25313 24.878124 169.84688 24.878124L167.08125 24.878124L167.08125 29.39375ZM181.3 37.753124Q179.15938 37.753124 177.8 36.346874Q176.45625 34.925 176.45625 32.565624L176.45625 32.221874Q176.45625 30.659374 177.05 29.425Q177.65938 28.190624 178.7375 27.4875Q179.81563 26.784374 181.08125 26.784374Q183.14375 26.784374 184.28438 28.14375Q185.425 29.503124 185.425 32.034374L185.425 32.784374L178.26875 32.784374Q178.3 34.346874 179.175 35.315624Q180.05 36.26875 181.39375 36.26875Q182.3625 36.26875 183.01875 35.878124Q183.69063 35.4875 184.19063 34.846874L185.28438 35.70625Q183.95625 37.753124 181.3 37.753124ZM181.08125 28.26875Q179.9875 28.26875 179.2375 29.065624Q178.50313 29.8625 178.33125 31.3L183.6125 31.3L183.6125 31.159374Q183.53438 29.784374 182.8625 29.034374Q182.20625 28.26875 181.08125 28.26875ZM189.72188 28.26875Q190.925 26.784374 192.84688 26.784374Q196.20625 26.784374 196.22188 30.565624L196.22188 37.55L194.425 37.55L194.425 30.55Q194.40938 29.409374 193.89375 28.8625Q193.39375 28.315624 192.3 28.315624Q191.425 28.315624 190.75313 28.784374Q190.09688 29.253124 189.72188 30.01875L189.72188 37.55L187.925 37.55L187.925 22.55L189.72188 22.55L189.72188 28.26875ZM205.44063 37.55Q205.28438 37.2375 205.19063 36.440624Q203.925 37.753124 202.175 37.753124Q200.6125 37.753124 199.6125 36.8625Q198.6125 35.971874 198.6125 34.6125Q198.6125 32.971874 199.8625 32.065624Q201.12813 31.14375 203.39375 31.14375L205.15938 31.14375L205.15938 30.315624Q205.15938 29.3625 204.58125 28.8Q204.01875 28.2375 202.925 28.2375Q201.95625 28.2375 201.3 28.7375Q200.64375 29.221874 200.64375 29.909374L198.83125 29.909374Q198.83125 29.128124 199.39375 28.39375Q199.95625 27.64375 200.90938 27.221874Q201.87813 26.784374 203.03438 26.784374Q204.8625 26.784374 205.89375 27.70625Q206.925 28.6125 206.97188 30.221874L206.97188 35.08125Q206.97188 36.534374 207.33125 37.39375L207.33125 37.55L205.44063 37.55ZM202.44063 36.175Q203.3 36.175 204.05 35.7375Q204.81563 35.3 205.15938 34.596874L205.15938 32.425L203.7375 32.425Q200.425 32.425 200.425 34.3625Q200.425 35.221874 200.9875 35.70625Q201.55 36.175 202.44063 36.175ZM213.40938 35.096874L216.01875 26.9875L217.8625 26.9875L214.08125 37.55L212.70625 37.55L208.87813 26.9875L210.72188 26.9875L213.40938 35.096874ZM221.87813 37.55L220.08125 37.55L220.08125 26.9875L221.87813 26.9875L221.87813 37.55ZM219.925 24.175Q219.925 23.7375 220.19063 23.440624Q220.47188 23.128124 220.9875 23.128124Q221.51875 23.128124 221.78438 23.440624Q222.06563 23.7375 222.06563 24.175Q222.06563 24.6125 221.78438 24.909374Q221.51875 25.20625 220.9875 25.20625Q220.47188 25.20625 220.19063 24.909374Q219.925 24.6125 219.925 24.175ZM224.44063 32.175Q224.44063 30.6125 225.05 29.378124Q225.65938 28.128124 226.7375 27.45625Q227.83125 26.784374 229.2375 26.784374Q231.39375 26.784374 232.72188 28.284374Q234.06563 29.76875 234.06563 32.253124L234.06563 32.378124Q234.06563 33.925 233.47188 35.159374Q232.87813 36.378124 231.76875 37.065624Q230.675 37.753124 229.25313 37.753124Q227.1125 37.753124 225.76875 36.253124Q224.44063 34.753124 224.44063 32.3L224.44063 32.175ZM226.25313 32.378124Q226.25313 34.14375 227.06563 35.20625Q227.89375 36.26875 229.25313 36.26875Q230.62813 36.26875 231.44063 35.190624Q232.25313 34.1125 232.25313 32.175Q232.25313 30.425 231.425 29.346874Q230.59688 28.26875 229.2375 28.26875Q227.89375 28.26875 227.06563 29.33125Q226.25313 30.39375 226.25313 32.378124ZM241.01875 28.596874Q240.6125 28.534374 240.14375 28.534374Q238.3625 28.534374 237.72188 30.05L237.72188 37.55L235.925 37.55L235.925 26.9875L237.675 26.9875L237.70625 28.20625Q238.59688 26.784374 240.22188 26.784374Q240.75313 26.784374 241.01875 26.925L241.01875 28.596874Z" fill-rule="nonzero"/></svg>