<svg version="1.1" viewBox="0.0 0.0 374.0 371.0" fill="none" stroke="none" stroke-linecap="square" stroke-miterlimit="10" width="374" height="371" xmlns:xlink="http://www.w3.org/1999/xlink" xmlns="http://www.w3.org/2000/svg"><path fill="#ffffff" d="M0 0L374.0 0L374.0 371.0L0 371.0L0 0Z" fill-rule="nonzero"/><path stroke="#333333" stroke-width="1.0" stroke-linecap="butt" d="M78.5 62.5L78.5 298.5" fill-rule="nonzero"/><path stroke="#cccccc" stroke-width="1.0" stroke-linecap="butt" d="M147.5 62.5L147.5 298.5" fill-rule="nonzero"/><path stroke="#cccccc" stroke-width="1.0" stroke-linecap="butt" d="M217.5 62.5L217.5 298.5" fill-rule="nonzero"/><path stroke="#cccccc" stroke-width="1.0" stroke-linecap="butt" d="M286.5 62.5L286.5 298.5" fill-rule="nonzero"/><path stroke="#cccccc" stroke-width="1.0" stroke-linecap="butt" d="M355.5 62.5L355.5 298.5" fill-rule="nonzero"/><path stroke="#333333" stroke-width="1.0" stroke-linecap="butt" d="M78.5 298.5L355.5 298.5" fill-rule="nonzero"/><path stroke="#cccccc" stroke-width="1.0" stroke-linecap="butt" d="M78.5 239.5L355.5 239.5" fill-rule="nonzero"/><path stroke="#cccccc" stroke-width="1.0" stroke-linecap="butt" d="M78.5 180.5L355.5 180.5" fill-rule="nonzero"/><path stroke="#cccccc" stroke-width="1.0" stroke-linecap="butt" d="M78.5 121.5L355.5 121.5" fill-rule="nonzero"/><path stroke="#cccccc" stroke-width="1.0" stroke-linecap="butt" d="M78.5 62.5L355.5 62.5" fill-rule="nonzero"/><clipPath id="id_0"><path d="M78.55 62.416668L355.45 62.416668L355.45 298.45L78.55 298.45L78.55 62.416668Z" clip-rule="nonzero"/></clipPath><path stroke="#ff9900" stroke-width="2.0" stroke-linecap="butt" clip-path="url(#id_0)" d="M78.55 298.45L355.45 62.416668" fill-rule="nonzero"/><path fill="#000000" fill-opacity="0.0" clip-path="url(#id_0)" d="M81.55 298.45C81.55 300.10684 80.206856 301.45 78.55 301.45C76.89314 301.45 75.55 300.10684 75.55 298.45C75.55 296.79315 76.89314 295.45 78.55 295.45C80.206856 295.45 81.55 296.79315 81.55 298.45Z" fill-rule="nonzero"/><path fill="#000000" fill-opacity="0.0" clip-path="url(#id_0)" d="M358.45 62.416668C358.45 64.073524 357.10684 65.416664 355.45 65.416664C353.79315 65.416664 352.45 64.073524 352.45 62.416668C352.45 60.75981 353.79315 59.416668 355.45 59.416668C357.10684 59.416668 358.45 60.75981 358.45 62.416668Z" fill-rule="nonzero"/><path fill="#424242" d="M193.70312 345.6844L190.10938 345.6844L190.10938 349.45L188.98438 349.45L188.98438 340.91876L194.28125 340.91876L194.28125 341.84064L190.10938 341.84064L190.10938 344.7625L193.70312 344.7625L193.70312 345.6844ZM199.73438 348.825Q199.10938 349.575 197.875 349.575Q196.85938 349.575 196.32812 348.98126Q195.79688 348.3875 195.79688 347.23126L195.79688 343.10626L196.875 343.10626L196.875 347.2Q196.875 348.65314 198.04688 348.65314Q199.29688 348.65314 199.70312 347.71564L199.70312 343.10626L200.79688 343.10626L200.79688 349.45L199.76562 349.45L199.73438 348.825ZM203.84375 343.10626L203.875 343.90314Q204.60938 342.9969 205.78125 342.9969Q207.79688 342.9969 207.8125 345.2625L207.8125 349.45L206.71875 349.45L206.71875 345.2469Q206.71875 344.575 206.40625 344.2469Q206.10938 343.91876 205.45312 343.91876Q204.92188 343.91876 204.51562 344.2Q204.125 344.48126 203.90625 344.9344L203.90625 349.45L202.82812 349.45L202.82812 343.10626L203.84375 343.10626ZM212.35938 348.6844Q212.9375 348.6844 213.375 348.34064Q213.8125 347.98126 213.85938 347.45L214.89062 347.45Q214.85938 347.9969 214.5 348.4969Q214.15625 348.98126 213.57812 349.27814Q213.01562 349.575 212.35938 349.575Q211.0625 349.575 210.29688 348.71564Q209.54688 347.84064 209.54688 346.34064L209.54688 346.15314Q209.54688 345.23126 209.875 344.5125Q210.21875 343.79376 210.84375 343.40314Q211.48438 342.9969 212.35938 342.9969Q213.42188 342.9969 214.125 343.6375Q214.84375 344.2625 214.89062 345.29376L213.85938 345.29376Q213.8125 344.66876 213.39062 344.27814Q212.96875 343.8875 212.35938 343.8875Q211.53125 343.8875 211.07812 344.48126Q210.625 345.075 210.625 346.2L210.625 346.40314Q210.625 347.4969 211.07812 348.09064Q211.53125 348.6844 212.35938 348.6844ZM217.29688 341.575L217.29688 343.10626L218.46875 343.10626L218.46875 343.95L217.29688 343.95L217.29688 347.8719Q217.29688 348.2625 217.45312 348.45Q217.60938 348.6375 217.98438 348.6375Q218.17188 348.6375 218.5 348.575L218.5 349.45Q218.07812 349.575 217.67188 349.575Q216.95312 349.575 216.57812 349.1375Q216.20312 348.6844 216.20312 347.8719L216.20312 343.95L215.04688 343.95L215.04688 343.10626L216.20312 343.10626L216.20312 341.575L217.29688 341.575ZM221.0 349.45L219.92188 349.45L219.92188 343.10626L221.0 343.10626L221.0 349.45ZM219.82812 341.4344Q219.82812 341.16876 219.98438 340.98126Q220.15625 340.79376 220.46875 340.79376Q220.78125 340.79376 220.9375 340.98126Q221.10938 341.16876 221.10938 341.4344Q221.10938 341.6844 220.9375 341.8719Q220.78125 342.04376 220.46875 342.04376Q220.15625 342.04376 219.98438 341.8719Q219.82812 341.6844 219.82812 341.4344ZM222.53125 346.21564Q222.53125 345.29376 222.89062 344.54376Q223.26562 343.79376 223.92188 343.40314Q224.57812 342.9969 225.40625 342.9969Q226.70312 342.9969 227.5 343.8875Q228.3125 344.77814 228.3125 346.27814L228.3125 346.35626Q228.3125 347.27814 227.95312 348.0125Q227.59375 348.7469 226.9375 349.16876Q226.28125 349.575 225.42188 349.575Q224.14062 349.575 223.32812 348.6844Q222.53125 347.77814 222.53125 346.29376L222.53125 346.21564ZM223.625 346.35626Q223.625 347.40314 224.10938 348.04376Q224.60938 348.6844 225.42188 348.6844Q226.25 348.6844 226.73438 348.04376Q227.21875 347.3875 227.21875 346.21564Q227.21875 345.1844 226.71875 344.54376Q226.23438 343.8875 225.40625 343.8875Q224.60938 343.8875 224.10938 344.52814Q223.625 345.15314 223.625 346.35626ZM230.84375 343.10626L230.875 343.90314Q231.60938 342.9969 232.78125 342.9969Q234.79688 342.9969 234.8125 345.2625L234.8125 349.45L233.71875 349.45L233.71875 345.2469Q233.71875 344.575 233.40625 344.2469Q233.10938 343.91876 232.45312 343.91876Q231.92188 343.91876 231.51562 344.2Q231.125 344.48126 230.90625 344.9344L230.90625 349.45L229.82812 349.45L229.82812 343.10626L230.84375 343.10626ZM240.73438 349.45Q240.64062 349.2625 240.57812 348.77814Q239.82812 349.575 238.78125 349.575Q237.84375 349.575 237.23438 349.04376Q236.64062 348.5125 236.64062 347.6844Q236.64062 346.7 237.39062 346.15314Q238.14062 345.60626 239.51562 345.60626L240.5625 345.60626L240.5625 345.10626Q240.5625 344.54376 240.21875 344.21564Q239.89062 343.8719 239.21875 343.8719Q238.64062 343.8719 238.25 344.16876Q237.85938 344.45 237.85938 344.8719L236.76562 344.8719Q236.76562 344.3875 237.09375 343.95Q237.4375 343.5125 238.01562 343.2625Q238.59375 342.9969 239.28125 342.9969Q240.39062 342.9969 241.0 343.54376Q241.625 344.09064 241.65625 345.04376L241.65625 347.96564Q241.65625 348.84064 241.875 349.35626L241.875 349.45L240.73438 349.45ZM238.9375 348.6219Q239.45312 348.6219 239.90625 348.35626Q240.35938 348.09064 240.5625 347.66876L240.5625 346.3719L239.71875 346.3719Q237.71875 346.3719 237.71875 347.54376Q237.71875 348.04376 238.0625 348.34064Q238.40625 348.6219 238.9375 348.6219ZM245.0 349.45L243.92188 349.45L243.92188 340.45L245.0 340.45L245.0 349.45Z" fill-rule="nonzero"/><path fill="#424242" d="M27.846888 212.41771Q29.190638 212.57396 29.940638 213.41771Q30.675013 214.26146 30.675013 215.65208Q30.675013 217.16771 29.596888 218.07396Q28.503138 218.98021 26.675013 218.98021L25.862513 218.98021Q24.675013 218.98021 23.768763 218.55833Q22.862513 218.13646 22.378138 217.35521Q21.893763 216.57396 21.893763 215.55833Q21.893763 214.19896 22.659388 213.38646Q23.425013 212.55833 24.753138 212.41771L24.753138 213.54271Q23.737513 213.69896 23.284388 214.18333Q22.831263 214.66771 22.831263 215.55833Q22.831263 216.63646 23.628138 217.24583Q24.425013 217.85521 25.893763 217.85521L26.721888 217.85521Q28.112513 217.85521 28.940638 217.27708Q29.753138 216.69896 29.753138 215.65208Q29.753138 214.71458 29.331263 214.21458Q28.893763 213.71458 27.846888 213.54271L27.846888 212.41771ZM24.971888 209.77708Q24.096888 209.05833 24.096888 207.90208Q24.096888 205.88646 26.362513 205.87083L30.550013 205.87083L30.550013 206.96458L26.346888 206.96458Q25.675013 206.96458 25.346888 207.27708Q25.018763 207.57396 25.018763 208.23021Q25.018763 208.76146 25.300013 209.16771Q25.581263 209.55833 26.034388 209.77708L30.550013 209.77708L30.550013 210.85521L21.550013 210.85521L21.550013 209.77708L24.971888 209.77708ZM30.550013 199.94896Q30.362513 200.04271 29.878138 200.10521Q30.675013 200.85521 30.675013 201.90208Q30.675013 202.83958 30.143763 203.44896Q29.612513 204.04271 28.784388 204.04271Q27.800013 204.04271 27.253138 203.29271Q26.706263 202.54271 26.706263 201.16771L26.706263 200.12083L26.206263 200.12083Q25.643763 200.12083 25.315638 200.46458Q24.971888 200.79271 24.971888 201.46458Q24.971888 202.04271 25.268763 202.43333Q25.550013 202.82396 25.971888 202.82396L25.971888 203.91771Q25.487513 203.91771 25.050013 203.58958Q24.612513 203.24583 24.362513 202.66771Q24.096888 202.08958 24.096888 201.40208Q24.096888 200.29271 24.643763 199.68333Q25.190638 199.05833 26.143763 199.02708L29.065638 199.02708Q29.940638 199.02708 30.456263 198.80833L30.550013 198.80833L30.550013 199.94896ZM29.721888 201.74583Q29.721888 201.23021 29.456263 200.77708Q29.190638 200.32396 28.768763 200.12083L27.471888 200.12083L27.471888 200.96458Q27.471888 202.96458 28.643763 202.96458Q29.143763 202.96458 29.440638 202.62083Q29.721888 202.27708 29.721888 201.74583ZM24.206263 195.83958L25.003138 195.80833Q24.096888 195.07396 24.096888 193.90208Q24.096888 191.88646 26.362513 191.87083L30.550013 191.87083L30.550013 192.96458L26.346888 192.96458Q25.675013 192.96458 25.346888 193.27708Q25.018763 193.57396 25.018763 194.23021Q25.018763 194.76146 25.300013 195.16771Q25.581263 195.55833 26.034388 195.77708L30.550013 195.77708L30.550013 196.85521L24.206263 196.85521L24.206263 195.83958ZM27.331263 190.12083Q25.846888 190.12083 24.971888 189.43333Q24.096888 188.74583 24.096888 187.62083Q24.096888 186.46458 24.909388 185.80833L24.206263 185.76146L24.206263 184.76146L30.393763 184.76146Q31.628138 184.76146 32.33126 185.49583Q33.05001 186.23021 33.05001 187.44896Q33.05001 188.13646 32.753136 188.79271Q32.45626 189.44896 31.956263 189.79271L31.300013 189.23021Q32.159386 188.54271 32.159386 187.52708Q32.159386 186.74583 31.706263 186.30833Q31.268763 185.85521 30.456263 185.85521L29.909388 185.85521Q30.675013 186.51146 30.675013 187.63646Q30.675013 188.74583 29.784388 189.43333Q28.878138 190.12083 27.331263 190.12083ZM27.456263 189.02708Q28.518763 189.02708 29.143763 188.58958Q29.753138 188.15208 29.753138 187.35521Q29.753138 186.33958 28.815638 185.85521L25.925013 185.85521Q25.018763 186.35521 25.018763 187.35521Q25.018763 188.13646 25.628138 188.58958Q26.237513 189.02708 27.456263 189.02708ZM30.675013 180.23021Q30.675013 181.52708 29.831263 182.33958Q28.971888 183.13646 27.550013 183.13646L27.362513 183.13646Q26.409388 183.13646 25.675013 182.77708Q24.925013 182.41771 24.518763 181.77708Q24.096888 181.12083 24.096888 180.37083Q24.096888 179.13646 24.909388 178.44896Q25.721888 177.76146 27.237513 177.76146L27.690638 177.76146L27.690638 182.05833Q28.628138 182.02708 29.206263 181.51146Q29.784388 180.98021 29.784388 180.16771Q29.784388 179.60521 29.550013 179.21458Q29.315638 178.80833 28.925013 178.49583L29.440638 177.83958Q30.675013 178.63646 30.675013 180.23021ZM24.987513 180.37083Q24.987513 181.02708 25.471888 181.48021Q25.940638 181.91771 26.800013 182.01146L26.800013 178.83958L26.721888 178.83958Q25.893763 178.88646 25.440638 179.29271Q24.987513 179.68333 24.987513 180.37083ZM30.550013 172.94896Q30.362513 173.04271 29.878138 173.10521Q30.675013 173.85521 30.675013 174.90208Q30.675013 175.83958 30.143763 176.44896Q29.612513 177.04271 28.784388 177.04271Q27.800013 177.04271 27.253138 176.29271Q26.706263 175.54271 26.706263 174.16771L26.706263 173.12083L26.206263 173.12083Q25.643763 173.12083 25.315638 173.46458Q24.971888 173.79271 24.971888 174.46458Q24.971888 175.04271 25.268763 175.43333Q25.550013 175.82396 25.971888 175.82396L25.971888 176.91771Q25.487513 176.91771 25.050013 176.58958Q24.612513 176.24583 24.362513 175.66771Q24.096888 175.08958 24.096888 174.40208Q24.096888 173.29271 24.643763 172.68333Q25.190638 172.05833 26.143763 172.02708L29.065638 172.02708Q29.940638 172.02708 30.456263 171.80833L30.550013 171.80833L30.550013 172.94896ZM29.721888 174.74583Q29.721888 174.23021 29.456263 173.77708Q29.190638 173.32396 28.768763 173.12083L27.471888 173.12083L27.471888 173.96458Q27.471888 175.96458 28.643763 175.96458Q29.143763 175.96458 29.440638 175.62083Q29.721888 175.27708 29.721888 174.74583ZM27.456263 164.49583Q28.909388 164.49583 29.800013 165.16771Q30.675013 165.82396 30.675013 166.94896Q30.675013 168.15208 29.815638 168.80833L30.550013 168.87083L30.550013 169.85521L21.550013 169.85521L21.550013 168.77708L24.909388 168.77708Q24.096888 168.12083 24.096888 166.96458Q24.096888 165.80833 24.971888 165.15208Q25.831263 164.49583 27.362513 164.49583L27.456263 164.49583ZM27.331263 165.57396Q26.221888 165.57396 25.628138 166.01146Q25.018763 166.43333 25.018763 167.23021Q25.018763 168.30833 26.003138 168.77708L28.753138 168.77708Q29.753138 168.27708 29.753138 167.23021Q29.753138 166.44896 29.143763 166.01146Q28.534388 165.57396 27.331263 165.57396ZM30.550013 161.68333L30.550013 162.76146L21.550013 162.76146L21.550013 161.68333L30.550013 161.68333ZM30.675013 157.23021Q30.675013 158.52708 29.831263 159.33958Q28.971888 160.13646 27.550013 160.13646L27.362513 160.13646Q26.409388 160.13646 25.675013 159.77708Q24.925013 159.41771 24.518763 158.77708Q24.096888 158.12083 24.096888 157.37083Q24.096888 156.13646 24.909388 155.44896Q25.721888 154.76146 27.237513 154.76146L27.690638 154.76146L27.690638 159.05833Q28.628138 159.02708 29.206263 158.51146Q29.784388 157.98021 29.784388 157.16771Q29.784388 156.60521 29.550013 156.21458Q29.315638 155.80833 28.925013 155.49583L29.440638 154.83958Q30.675013 155.63646 30.675013 157.23021ZM24.987513 157.37083Q24.987513 158.02708 25.471888 158.48021Q25.940638 158.91771 26.800013 159.01146L26.800013 155.83958L26.721888 155.83958Q25.893763 155.88646 25.440638 156.29271Q24.987513 156.68333 24.987513 157.37083Z" fill-rule="nonzero"/><path fill="#757575" d="M71.6125 299.3094Q71.6125 301.21564 70.95625 302.15314Q70.31563 303.075 68.925 303.075Q67.56563 303.075 66.90938 302.16876Q66.25313 301.2625 66.22188 299.45L66.22188 298.0125Q66.22188 296.1219 66.8625 295.21564Q67.51875 294.29376 68.90938 294.29376Q70.28438 294.29376 70.94063 295.1844Q71.59688 296.0594 71.6125 297.90314L71.6125 299.3094ZM70.51875 297.825Q70.51875 296.45 70.12813 295.825Q69.75313 295.1844 68.90938 295.1844Q68.08125 295.1844 67.69063 295.825Q67.31563 296.45 67.31563 297.7469L67.31563 299.48126Q67.31563 300.85626 67.70625 301.52814Q68.1125 302.1844 68.925 302.1844Q69.72188 302.1844 70.1125 301.5594Q70.50313 300.9344 70.51875 299.60626L70.51875 297.825Z" fill-rule="nonzero"/><path fill="#757575" d="M64.84688 243.94167L59.253124 243.94167L59.253124 243.16042L62.20625 239.87917Q62.8625 239.12917 63.1125 238.67604Q63.3625 238.20729 63.3625 237.70729Q63.3625 237.03542 62.95625 236.61354Q62.565624 236.17604 61.878124 236.17604Q61.08125 236.17604 60.628124 236.64479Q60.175 237.09792 60.175 237.92604L59.096874 237.92604Q59.096874 236.73854 59.846874 236.01979Q60.6125 235.28542 61.878124 235.28542Q63.08125 235.28542 63.76875 235.91042Q64.45625 236.53542 64.45625 237.58229Q64.45625 238.83229 62.846874 240.58229L60.565624 243.05104L64.84688 243.05104L64.84688 243.94167ZM66.75313 239.66042L67.19063 235.41042L71.56563 235.41042L71.56563 236.41042L68.1125 236.41042L67.84688 238.73854Q68.4875 238.36354 69.28438 238.36354Q70.44063 238.36354 71.12813 239.14479Q71.81563 239.91042 71.81563 241.22292Q71.81563 242.53542 71.09688 243.30104Q70.39375 244.06667 69.1125 244.06667Q67.9875 244.06667 67.26875 243.44167Q66.55 242.80104 66.45625 241.69167L67.47188 241.69167Q67.58125 242.42604 68.00313 242.80104Q68.425 243.17604 69.1125 243.17604Q69.8625 243.17604 70.3 242.66042Q70.7375 242.14479 70.7375 241.23854Q70.7375 240.37917 70.26875 239.86354Q69.8 239.34792 69.01875 239.34792Q68.31563 239.34792 67.90938 239.64479L67.62813 239.87917L66.75313 239.66042Z" fill-rule="nonzero"/><path fill="#757575" d="M59.753124 180.65208L60.190624 176.40208L64.56563 176.40208L64.56563 177.40208L61.1125 177.40208L60.846874 179.73021Q61.4875 179.35521 62.284374 179.35521Q63.440624 179.35521 64.12813 180.13646Q64.81563 180.90208 64.81563 182.21458Q64.81563 183.52708 64.09688 184.29271Q63.39375 185.05833 62.1125 185.05833Q60.9875 185.05833 60.26875 184.43333Q59.55 183.79271 59.45625 182.68333L60.471874 182.68333Q60.58125 183.41771 61.003124 183.79271Q61.425 184.16771 62.1125 184.16771Q62.8625 184.16771 63.3 183.65208Q63.7375 183.13646 63.7375 182.23021Q63.7375 181.37083 63.26875 180.85521Q62.8 180.33958 62.01875 180.33958Q61.315624 180.33958 60.909374 180.63646L60.628124 180.87083L59.753124 180.65208ZM71.6125 181.29271Q71.6125 183.19896 70.95625 184.13646Q70.31563 185.05833 68.925 185.05833Q67.56563 185.05833 66.90938 184.15208Q66.25313 183.24583 66.22188 181.43333L66.22188 179.99583Q66.22188 178.10521 66.8625 177.19896Q67.51875 176.27708 68.90938 176.27708Q70.28438 176.27708 70.94063 177.16771Q71.59688 178.04271 71.6125 179.88646L71.6125 181.29271ZM70.51875 179.80833Q70.51875 178.43333 70.12813 177.80833Q69.75313 177.16771 68.90938 177.16771Q68.08125 177.16771 67.69063 177.80833Q67.31563 178.43333 67.31563 179.73021L67.31563 181.46458Q67.31563 182.83958 67.70625 183.51146Q68.1125 184.16771 68.925 184.16771Q69.72188 184.16771 70.1125 183.54271Q70.50313 182.91771 70.51875 181.58958L70.51875 179.80833Z" fill-rule="nonzero"/><path fill="#757575" d="M64.76875 118.00313L61.2375 125.925L60.096874 125.925L63.6125 118.28438L59.003124 118.28438L59.003124 117.39375L64.76875 117.39375L64.76875 118.00313ZM66.75313 121.64375L67.19063 117.39375L71.56563 117.39375L71.56563 118.39375L68.1125 118.39375L67.84688 120.72188Q68.4875 120.34688 69.28438 120.34688Q70.44063 120.34688 71.12813 121.12813Q71.81563 121.89375 71.81563 123.20625Q71.81563 124.51875 71.09688 125.28438Q70.39375 126.05 69.1125 126.05Q67.9875 126.05 67.26875 125.425Q66.55 124.78438 66.45625 123.675L67.47188 123.675Q67.58125 124.40938 68.00313 124.78438Q68.425 125.15938 69.1125 125.15938Q69.8625 125.15938 70.3 124.64375Q70.7375 124.12813 70.7375 123.22188Q70.7375 122.3625 70.26875 121.84688Q69.8 121.33125 69.01875 121.33125Q68.31563 121.33125 67.90938 121.62813L67.62813 121.8625L66.75313 121.64375Z" fill-rule="nonzero"/><path fill="#757575" d="M55.815624 66.916664L54.7375 66.916664L54.7375 59.697914L52.55 60.49479L52.55 59.510414L55.659374 58.33854L55.815624 58.33854L55.815624 66.916664ZM64.6125 63.27604Q64.6125 65.18229 63.95625 66.11979Q63.315624 67.041664 61.925 67.041664Q60.565624 67.041664 59.909374 66.135414Q59.253124 65.229164 59.221874 63.416664L59.221874 61.979164Q59.221874 60.08854 59.8625 59.18229Q60.51875 58.260414 61.909374 58.260414Q63.284374 58.260414 63.940624 59.15104Q64.59688 60.02604 64.6125 61.86979L64.6125 63.27604ZM63.51875 61.791664Q63.51875 60.416664 63.128124 59.791664Q62.753124 59.15104 61.909374 59.15104Q61.08125 59.15104 60.690624 59.791664Q60.315624 60.416664 60.315624 61.71354L60.315624 63.447914Q60.315624 64.822914 60.70625 65.49479Q61.1125 66.15104 61.925 66.15104Q62.721874 66.15104 63.1125 65.52604Q63.503124 64.90104 63.51875 63.572914L63.51875 61.791664ZM71.6125 63.27604Q71.6125 65.18229 70.95625 66.11979Q70.31563 67.041664 68.925 67.041664Q67.56563 67.041664 66.90938 66.135414Q66.25313 65.229164 66.22188 63.416664L66.22188 61.979164Q66.22188 60.08854 66.8625 59.18229Q67.51875 58.260414 68.90938 58.260414Q70.28438 58.260414 70.94063 59.15104Q71.59688 60.02604 71.6125 61.86979L71.6125 63.27604ZM70.51875 61.791664Q70.51875 60.416664 70.12813 59.791664Q69.75313 59.15104 68.90938 59.15104Q68.08125 59.15104 67.69063 59.791664Q67.31563 60.416664 67.31563 61.71354L67.31563 63.447914Q67.31563 64.822914 67.70625 65.49479Q68.1125 66.15104 68.925 66.15104Q69.72188 66.15104 70.1125 65.52604Q70.50313 64.90104 70.51875 63.572914L70.51875 61.791664Z" fill-rule="nonzero"/><path fill="#757575" d="M81.1125 312.8094Q81.1125 314.71564 80.45625 315.65314Q79.81563 316.575 78.425 316.575Q77.06563 316.575 76.40938 315.66876Q75.75313 314.7625 75.72188 312.95L75.72188 311.5125Q75.72188 309.6219 76.3625 308.71564Q77.01875 307.79376 78.40938 307.79376Q79.78438 307.79376 80.44063 308.6844Q81.09688 309.5594 81.1125 311.40314L81.1125 312.8094ZM80.01875 311.325Q80.01875 309.95 79.62813 309.325Q79.25313 308.6844 78.40938 308.6844Q77.58125 308.6844 77.19063 309.325Q76.81563 309.95 76.81563 311.2469L76.81563 312.98126Q76.81563 314.35626 77.20625 315.02814Q77.6125 315.6844 78.425 315.6844Q79.22188 315.6844 79.6125 315.0594Q80.00313 314.4344 80.01875 313.10626L80.01875 311.325Z" fill-rule="nonzero"/><path fill="#757575" d="M147.07187 316.45L141.47812 316.45L141.47812 315.66876L144.43124 312.3875Q145.0875 311.6375 145.3375 311.1844Q145.5875 310.71564 145.5875 310.21564Q145.5875 309.54376 145.18124 309.1219Q144.79062 308.6844 144.10312 308.6844Q143.30624 308.6844 142.85312 309.15314Q142.4 309.60626 142.4 310.4344L141.32187 310.4344Q141.32187 309.2469 142.07187 308.52814Q142.8375 307.79376 144.10312 307.79376Q145.30624 307.79376 145.99374 308.41876Q146.68124 309.04376 146.68124 310.09064Q146.68124 311.34064 145.07187 313.09064L142.79062 315.5594L147.07187 315.5594L147.07187 316.45ZM148.97812 312.16876L149.41562 307.91876L153.79062 307.91876L153.79062 308.91876L150.3375 308.91876L150.07187 311.2469Q150.7125 310.8719 151.50937 310.8719Q152.66562 310.8719 153.35312 311.65314Q154.04062 312.41876 154.04062 313.73126Q154.04062 315.04376 153.32187 315.8094Q152.61874 316.575 151.3375 316.575Q150.2125 316.575 149.49374 315.95Q148.775 315.3094 148.68124 314.2L149.69687 314.2Q149.80624 314.9344 150.22812 315.3094Q150.65 315.6844 151.3375 315.6844Q152.0875 315.6844 152.525 315.16876Q152.9625 314.65314 152.9625 313.7469Q152.9625 312.8875 152.49374 312.3719Q152.025 311.85626 151.24374 311.85626Q150.54062 311.85626 150.13437 312.15314L149.85312 312.3875L148.97812 312.16876Z" fill-rule="nonzero"/><path fill="#757575" d="M211.20312 312.16876L211.64062 307.91876L216.01562 307.91876L216.01562 308.91876L212.5625 308.91876L212.29688 311.2469Q212.9375 310.8719 213.73438 310.8719Q214.89062 310.8719 215.57812 311.65314Q216.26562 312.41876 216.26562 313.73126Q216.26562 315.04376 215.54688 315.8094Q214.84375 316.575 213.5625 316.575Q212.4375 316.575 211.71875 315.95Q211.0 315.3094 210.90625 314.2L211.92188 314.2Q212.03125 314.9344 212.45312 315.3094Q212.875 315.6844 213.5625 315.6844Q214.3125 315.6844 214.75 315.16876Q215.1875 314.65314 215.1875 313.7469Q215.1875 312.8875 214.71875 312.3719Q214.25 311.85626 213.46875 311.85626Q212.76562 311.85626 212.35938 312.15314L212.07812 312.3875L211.20312 312.16876ZM223.0625 312.8094Q223.0625 314.71564 222.40625 315.65314Q221.76562 316.575 220.375 316.575Q219.01562 316.575 218.35938 315.66876Q217.70312 314.7625 217.67188 312.95L217.67188 311.5125Q217.67188 309.6219 218.3125 308.71564Q218.96875 307.79376 220.35938 307.79376Q221.73438 307.79376 222.39062 308.6844Q223.04688 309.5594 223.0625 311.40314L223.0625 312.8094ZM221.96875 311.325Q221.96875 309.95 221.57812 309.325Q221.20312 308.6844 220.35938 308.6844Q219.53125 308.6844 219.14062 309.325Q218.76562 309.95 218.76562 311.2469L218.76562 312.98126Q218.76562 314.35626 219.15625 315.02814Q219.5625 315.6844 220.375 315.6844Q221.17188 315.6844 221.5625 315.0594Q221.95312 314.4344 221.96875 313.10626L221.96875 311.325Z" fill-rule="nonzero"/><path fill="#757575" d="M285.44376 308.52814L281.9125 316.45L280.77188 316.45L284.2875 308.8094L279.67813 308.8094L279.67813 307.91876L285.44376 307.91876L285.44376 308.52814ZM287.42813 312.16876L287.86563 307.91876L292.24063 307.91876L292.24063 308.91876L288.7875 308.91876L288.52188 311.2469Q289.1625 310.8719 289.95938 310.8719Q291.11563 310.8719 291.80313 311.65314Q292.49063 312.41876 292.49063 313.73126Q292.49063 315.04376 291.77188 315.8094Q291.06876 316.575 289.7875 316.575Q288.6625 316.575 287.94376 315.95Q287.225 315.3094 287.13126 314.2L288.14688 314.2Q288.25626 314.9344 288.67813 315.3094Q289.1 315.6844 289.7875 315.6844Q290.5375 315.6844 290.975 315.16876Q291.4125 314.65314 291.4125 313.7469Q291.4125 312.8875 290.94376 312.3719Q290.475 311.85626 289.69376 311.85626Q288.99063 311.85626 288.58438 312.15314L288.30313 312.3875L287.42813 312.16876Z" fill-rule="nonzero"/><path fill="#757575" d="M349.21564 316.45L348.1375 316.45L348.1375 309.23126L345.95 310.02814L345.95 309.04376L349.0594 307.8719L349.21564 307.8719L349.21564 316.45ZM358.0125 312.8094Q358.0125 314.71564 357.35626 315.65314Q356.71564 316.575 355.325 316.575Q353.96564 316.575 353.3094 315.66876Q352.65314 314.7625 352.6219 312.95L352.6219 311.5125Q352.6219 309.6219 353.2625 308.71564Q353.91876 307.79376 355.3094 307.79376Q356.6844 307.79376 357.34064 308.6844Q357.9969 309.5594 358.0125 311.40314L358.0125 312.8094ZM356.91876 311.325Q356.91876 309.95 356.52814 309.325Q356.15314 308.6844 355.3094 308.6844Q354.48126 308.6844 354.09064 309.325Q353.71564 309.95 353.71564 311.2469L353.71564 312.98126Q353.71564 314.35626 354.10626 315.02814Q354.5125 315.6844 355.325 315.6844Q356.1219 315.6844 356.5125 315.0594Q356.90314 314.4344 356.91876 313.10626L356.91876 311.325ZM365.0125 312.8094Q365.0125 314.71564 364.35626 315.65314Q363.71564 316.575 362.325 316.575Q360.96564 316.575 360.3094 315.66876Q359.65314 314.7625 359.6219 312.95L359.6219 311.5125Q359.6219 309.6219 360.2625 308.71564Q360.91876 307.79376 362.3094 307.79376Q363.6844 307.79376 364.34064 308.6844Q364.9969 309.5594 365.0125 311.40314L365.0125 312.8094ZM363.91876 311.325Q363.91876 309.95 363.52814 309.325Q363.15314 308.6844 362.3094 308.6844Q361.48126 308.6844 361.09064 309.325Q360.71564 309.95 360.71564 311.2469L360.71564 312.98126Q360.71564 314.35626 361.10626 315.02814Q361.5125 315.6844 362.325 315.6844Q363.1219 315.6844 363.5125 315.0594Q363.90314 314.4344 363.91876 313.10626L363.91876 311.325Z" fill-rule="nonzero"/><path fill="#757575" d="M30.659374 33.034374Q30.39375 35.3 28.9875 36.534374Q27.596874 37.753124 25.26875 37.753124Q22.753124 37.753124 21.221874 35.940624Q19.70625 34.128124 19.70625 31.096874L19.70625 29.7375Q19.70625 27.753124 20.409374 26.253124Q21.128124 24.753124 22.425 23.940624Q23.721874 23.128124 25.440624 23.128124Q27.70625 23.128124 29.065624 24.39375Q30.440624 25.659374 30.659374 27.89375L28.76875 27.89375Q28.534374 26.20625 27.70625 25.440624Q26.89375 24.675 25.440624 24.675Q23.64375 24.675 22.6125 26.003124Q21.596874 27.33125 21.596874 29.784374L21.596874 31.159374Q21.596874 33.471874 22.565624 34.846874Q23.534374 36.20625 25.26875 36.20625Q26.83125 36.20625 27.659374 35.503124Q28.503124 34.8 28.76875 33.034374L30.659374 33.034374ZM34.721874 28.26875Q35.925 26.784374 37.846874 26.784374Q41.20625 26.784374 41.221874 30.565624L41.221874 37.55L39.425 37.55L39.425 30.55Q39.409374 29.409374 38.89375 28.8625Q38.39375 28.315624 37.3 28.315624Q36.425 28.315624 35.753124 28.784374Q35.096874 29.253124 34.721874 30.01875L34.721874 37.55L32.925 37.55L32.925 22.55L34.721874 22.55L34.721874 28.26875ZM50.440624 37.55Q50.284374 37.2375 50.190624 36.440624Q48.925 37.753124 47.175 37.753124Q45.6125 37.753124 44.6125 36.8625Q43.6125 35.971874 43.6125 34.6125Q43.6125 32.971874 44.8625 32.065624Q46.128124 31.14375 48.39375 31.14375L50.159374 31.14375L50.159374 30.315624Q50.159374 29.3625 49.58125 28.8Q49.01875 28.2375 47.925 28.2375Q46.95625 28.2375 46.3 28.7375Q45.64375 29.221874 45.64375 29.909374L43.83125 29.909374Q43.83125 29.128124 44.39375 28.39375Q44.95625 27.64375 45.909374 27.221874Q46.878124 26.784374 48.034374 26.784374Q49.8625 26.784374 50.89375 27.70625Q51.925 28.6125 51.971874 30.221874L51.971874 35.08125Q51.971874 36.534374 52.33125 37.39375L52.33125 37.55L50.440624 37.55ZM47.440624 36.175Q48.3 36.175 49.05 35.7375Q49.815624 35.3 50.159374 34.596874L50.159374 32.425L48.7375 32.425Q45.425 32.425 45.425 34.3625Q45.425 35.221874 45.9875 35.70625Q46.55 36.175 47.440624 36.175ZM56.628124 26.9875L56.690624 28.315624Q57.89375 26.784374 59.846874 26.784374Q63.20625 26.784374 63.221874 30.565624L63.221874 37.55L61.425 37.55L61.425 30.55Q61.409374 29.409374 60.89375 28.8625Q60.39375 28.315624 59.3 28.315624Q58.425 28.315624 57.753124 28.784374Q57.096874 29.253124 56.721874 30.01875L56.721874 37.55L54.925 37.55L54.925 26.9875L56.628124 26.9875ZM65.4875 32.175Q65.4875 29.70625 66.62813 28.253124Q67.76875 26.784374 69.65938 26.784374Q71.59688 26.784374 72.675 28.159374L72.76875 26.9875L74.40938 26.9875L74.40938 37.3Q74.40938 39.346874 73.19063 40.51875Q71.9875 41.70625 69.925 41.70625Q68.78438 41.70625 67.69063 41.221874Q66.59688 40.7375 66.01875 39.878124L66.95625 38.8Q68.12813 40.2375 69.8 40.2375Q71.12813 40.2375 71.8625 39.4875Q72.59688 38.753124 72.59688 37.409374L72.59688 36.4875Q71.51875 37.753124 69.64375 37.753124Q67.78438 37.753124 66.62813 36.253124Q65.4875 34.753124 65.4875 32.175ZM67.3 32.378124Q67.3 34.175 68.03438 35.190624Q68.76875 36.20625 70.08125 36.20625Q71.8 36.20625 72.59688 34.659374L72.59688 29.83125Q71.76875 28.315624 70.1125 28.315624Q68.78438 28.315624 68.03438 29.346874Q67.3 30.378124 67.3 32.378124ZM81.3 37.753124Q79.15938 37.753124 77.8 36.346874Q76.45625 34.925 76.45625 32.565624L76.45625 32.221874Q76.45625 30.659374 77.05 29.425Q77.65938 28.190624 78.7375 27.4875Q79.81563 26.784374 81.08125 26.784374Q83.14375 26.784374 84.28438 28.14375Q85.425 29.503124 85.425 32.034374L85.425 32.784374L78.26875 32.784374Q78.3 34.346874 79.175 35.315624Q80.05 36.26875 81.39375 36.26875Q82.3625 36.26875 83.01875 35.878124Q83.69063 35.4875 84.19063 34.846874L85.28438 35.70625Q83.95625 37.753124 81.3 37.753124ZM81.08125 28.26875Q79.9875 28.26875 79.2375 29.065624Q78.50313 29.8625 78.33125 31.3L83.6125 31.3L83.6125 31.159374Q83.53438 29.784374 82.8625 29.034374Q82.20625 28.26875 81.08125 28.26875ZM94.44063 37.55Q94.28438 37.2375 94.19063 36.440624Q92.925 37.753124 91.175 37.753124Q89.6125 37.753124 88.6125 36.8625Q87.6125 35.971874 87.6125 34.6125Q87.6125 32.971874 88.8625 32.065624Q90.12813 31.14375 92.39375 31.14375L94.15938 31.14375L94.15938 30.315624Q94.15938 29.3625 93.58125 28.8Q93.01875 28.2375 91.925 28.2375Q90.95625 28.2375 90.3 28.7375Q89.64375 29.221874 89.64375 29.909374L87.83125 29.909374Q87.83125 29.128124 88.39375 28.39375Q88.95625 27.64375 89.90938 27.221874Q90.87813 26.784374 92.03438 26.784374Q93.8625 26.784374 94.89375 27.70625Q95.925 28.6125 95.97188 30.221874L95.97188 35.08125Q95.97188 36.534374 96.33125 37.39375L96.33125 37.55L94.44063 37.55ZM91.44063 36.175Q92.3 36.175 93.05 35.7375Q93.81563 35.3 94.15938 34.596874L94.15938 32.425L92.7375 32.425Q89.425 32.425 89.425 34.3625Q89.425 35.221874 89.9875 35.70625Q90.55 36.175 91.44063 36.175ZM107.8625 32.378124Q107.8625 34.8 106.75313 36.284374Q105.64375 37.753124 103.76875 37.753124Q101.75313 37.753124 100.65938 36.33125L100.58125 37.55L98.925 37.55L98.925 22.55L100.72188 22.55L100.72188 28.14375Q101.81563 26.784374 103.7375 26.784374Q105.65938 26.784374 106.75313 28.2375Q107.8625 29.690624 107.8625 32.221874L107.8625 32.378124ZM106.05 32.175Q106.05 30.33125 105.33125 29.33125Q104.62813 28.315624 103.3 28.315624Q101.50313 28.315624 100.72188 29.9875L100.72188 34.55Q101.55 36.20625 103.31563 36.20625Q104.6125 36.20625 105.33125 35.20625Q106.05 34.20625 106.05 32.175ZM111.87813 37.55L110.08125 37.55L110.08125 22.55L111.87813 22.55L111.87813 37.55ZM119.3 37.753124Q117.15938 37.753124 115.8 36.346874Q114.45625 34.925 114.45625 32.565624L114.45625 32.221874Q114.45625 30.659374 115.05 29.425Q115.65938 28.190624 116.7375 27.4875Q117.81563 26.784374 119.08125 26.784374Q121.14375 26.784374 122.28438 28.14375Q123.425 29.503124 123.425 32.034374L123.425 32.784374L116.26875 32.784374Q116.3 34.346874 117.175 35.315624Q118.05 36.26875 119.39375 36.26875Q120.3625 36.26875 121.01875 35.878124Q121.69063 35.4875 122.19063 34.846874L123.28438 35.70625Q121.95625 37.753124 119.3 37.753124ZM119.08125 28.26875Q117.9875 28.26875 117.2375 29.065624Q116.50313 29.8625 116.33125 31.3L121.6125 31.3L121.6125 31.159374Q121.53438 29.784374 120.8625 29.034374Q120.20625 28.26875 119.08125 28.26875ZM134.40938 35.096874L137.01875 26.9875L138.8625 26.9875L135.08125 37.55L133.70625 37.55L129.87813 26.9875L131.72188 26.9875L134.40938 35.096874ZM147.06563 34.753124Q147.06563 34.01875 146.51875 33.6125Q145.97188 33.20625 144.59688 32.909374Q143.22188 32.6125 142.40938 32.20625Q141.6125 31.8 141.22188 31.2375Q140.84688 30.659374 140.84688 29.878124Q140.84688 28.58125 141.94063 27.690624Q143.03438 26.784374 144.75313 26.784374Q146.55 26.784374 147.65938 27.721874Q148.78438 28.64375 148.78438 30.08125L146.95625 30.08125Q146.95625 29.346874 146.33125 28.815624Q145.70625 28.26875 144.75313 28.26875Q143.75313 28.26875 143.19063 28.70625Q142.64375 29.128124 142.64375 29.83125Q142.64375 30.471874 143.15938 30.815624Q143.675 31.14375 145.03438 31.45625Q146.39375 31.753124 147.22188 32.175Q148.06563 32.58125 148.47188 33.175Q148.87813 33.76875 148.87813 34.6125Q148.87813 36.034374 147.7375 36.89375Q146.6125 37.753124 144.8 37.753124Q143.53438 37.753124 142.55 37.3Q141.58125 36.846874 141.01875 36.05Q140.47188 35.2375 140.47188 34.3L142.28438 34.3Q142.33125 35.20625 143.00313 35.7375Q143.69063 36.26875 144.8 36.26875Q145.83125 36.26875 146.44063 35.8625Q147.06563 35.440624 147.06563 34.753124ZM150.95625 36.596874Q150.95625 36.128124 151.2375 35.815624Q151.51875 35.503124 152.06563 35.503124Q152.62813 35.503124 152.90938 35.815624Q153.20625 36.128124 153.20625 36.596874Q153.20625 37.05 152.90938 37.3625Q152.62813 37.659374 152.06563 37.659374Q151.51875 37.659374 151.2375 37.3625Q150.95625 37.05 150.95625 36.596874ZM169.05 31.26875L163.08125 31.26875L163.08125 37.55L161.20625 37.55L161.20625 23.33125L170.00313 23.33125L170.00313 24.878124L163.08125 24.878124L163.08125 29.7375L169.05 29.7375L169.05 31.26875ZM178.44063 36.503124Q177.39375 37.753124 175.34688 37.753124Q173.65938 37.753124 172.76875 36.76875Q171.89375 35.784374 171.87813 33.8625L171.87813 26.9875L173.69063 26.9875L173.69063 33.815624Q173.69063 36.20625 175.64375 36.20625Q177.70625 36.20625 178.39375 34.675L178.39375 26.9875L180.20625 26.9875L180.20625 37.55L178.4875 37.55L178.44063 36.503124ZM184.62813 26.9875L184.69063 28.315624Q185.89375 26.784374 187.84688 26.784374Q191.20625 26.784374 191.22188 30.565624L191.22188 37.55L189.425 37.55L189.425 30.55Q189.40938 29.409374 188.89375 28.8625Q188.39375 28.315624 187.3 28.315624Q186.425 28.315624 185.75313 28.784374Q185.09688 29.253124 184.72188 30.01875L184.72188 37.55L182.925 37.55L182.925 26.9875L184.62813 26.9875ZM198.15938 36.26875Q199.12813 36.26875 199.84688 35.690624Q200.56563 35.096874 200.64375 34.221874L202.3625 34.221874Q202.3 35.128124 201.72188 35.95625Q201.15938 36.76875 200.19063 37.26875Q199.2375 37.753124 198.15938 37.753124Q196.00313 37.753124 194.72188 36.315624Q193.45625 34.8625 193.45625 32.3625L193.45625 32.065624Q193.45625 30.51875 194.01875 29.315624Q194.58125 28.1125 195.64375 27.45625Q196.70625 26.784374 198.14375 26.784374Q199.925 26.784374 201.09688 27.846874Q202.28438 28.909374 202.3625 30.6125L200.64375 30.6125Q200.56563 29.596874 199.8625 28.940624Q199.175 28.26875 198.14375 28.26875Q196.76875 28.26875 196.00313 29.26875Q195.25313 30.253124 195.25313 32.128124L195.25313 32.471874Q195.25313 34.3 196.00313 35.284374Q196.75313 36.26875 198.15938 36.26875ZM206.3625 24.425L206.3625 26.9875L208.34688 26.9875L208.34688 28.378124L206.3625 28.378124L206.3625 34.925Q206.3625 35.565624 206.62813 35.89375Q206.89375 36.20625 207.53438 36.20625Q207.84688 36.20625 208.39375 36.08125L208.39375 37.55Q207.675 37.753124 207.00313 37.753124Q205.8 37.753124 205.175 37.01875Q204.56563 36.284374 204.56563 34.925L204.56563 28.378124L202.64375 28.378124L202.64375 26.9875L204.56563 26.9875L204.56563 24.425L206.3625 24.425ZM212.87813 37.55L211.08125 37.55L211.08125 26.9875L212.87813 26.9875L212.87813 37.55ZM210.925 24.175Q210.925 23.7375 211.19063 23.440624Q211.47188 23.128124 211.9875 23.128124Q212.51875 23.128124 212.78438 23.440624Q213.06563 23.7375 213.06563 24.175Q213.06563 24.6125 212.78438 24.909374Q212.51875 25.20625 211.9875 25.20625Q211.47188 25.20625 211.19063 24.909374Q210.925 24.6125 210.925 24.175ZM215.44063 32.175Q215.44063 30.6125 216.05 29.378124Q216.65938 28.128124 217.7375 27.45625Q218.83125 26.784374 220.2375 26.784374Q222.39375 26.784374 223.72188 28.284374Q225.06563 29.76875 225.06563 32.253124L225.06563 32.378124Q225.06563 33.925 224.47188 35.159374Q223.87813 36.378124 222.76875 37.065624Q221.675 37.753124 220.25313 37.753124Q218.1125 37.753124 216.76875 36.253124Q215.44063 34.753124 215.44063 32.3L215.44063 32.175ZM217.25313 32.378124Q217.25313 34.14375 218.06563 35.20625Q218.89375 36.26875 220.25313 36.26875Q221.62813 36.26875 222.44063 35.190624Q223.25313 34.1125 223.25313 32.175Q223.25313 30.425 222.425 29.346874Q221.59688 28.26875 220.2375 28.26875Q218.89375 28.26875 218.06563 29.33125Q217.25313 30.39375 217.25313 32.378124ZM228.62813 26.9875L228.69063 28.315624Q229.89375 26.784374 231.84688 26.784374Q235.20625 26.784374 235.22188 30.565624L235.22188 37.55L233.425 37.55L233.425 30.55Q233.40938 29.409374 232.89375 28.8625Q232.39375 28.315624 231.3 28.315624Q230.425 28.315624 229.75313 28.784374Q229.09688 29.253124 228.72188 30.01875L228.72188 37.55L226.925 37.55L226.925 26.9875L228.62813 26.9875ZM244.44063 37.55Q244.28438 37.2375 244.19063 36.440624Q242.925 37.753124 241.175 37.753124Q239.6125 37.753124 238.6125 36.8625Q237.6125 35.971874 237.6125 34.6125Q237.6125 32.971874 238.8625 32.065624Q240.12813 31.14375 242.39375 31.14375L244.15938 31.14375L244.15938 30.315624Q244.15938 29.3625 243.58125 28.8Q243.01875 28.2375 241.925 28.2375Q240.95625 28.2375 240.3 28.7375Q239.64375 29.221874 239.64375 29.909374L237.83125 29.909374Q237.83125 29.128124 238.39375 28.39375Q238.95625 27.64375 239.90938 27.221874Q240.87813 26.784374 242.03438 26.784374Q243.8625 26.784374 244.89375 27.70625Q245.925 28.6125 245.97188 30.221874L245.97188 35.08125Q245.97188 36.534374 246.33125 37.39375L246.33125 37.55L244.44063 37.55ZM241.44063 36.175Q242.3 36.175 243.05 35.7375Q243.81563 35.3 244.15938 34.596874L244.15938 32.425L242.7375 32.425Q239.425 32.425 239.425 34.3625Q239.425 35.221874 239.9875 35.70625Q240.55 36.175 241.44063 36.175ZM250.87813 37.55L249.08125 37.55L249.08125 22.55L250.87813 22.55L250.87813 37.55Z" fill-rule="nonzero"/></svg>